Roman_opsz12 db.ufo
<glyph name="hyphen" format="2">
  <advance width="326"/>
  <unicode hex="002D"/>
  <outline>
    <contour>
      <point x="271" y="189" type="line"/>
      <point x="271" y="243" type="line"/>
      <point x="11" y="243" type="line"/>
      <point x="11" y="189" type="line"/>
    </contour>
  </outline>
</glyph>
<glyph name="zero" format="2">
  <advance width="489"/>
  <unicode hex="0030"/>
  <outline>
    <contour>
      <point x="244" y="-21" type="curve" smooth="yes"/>
      <point x="331" y="-21"/>
      <point x="381" y="31"/>
      <point x="410" y="89" type="curve" smooth="yes"/>
      <point x="446" y="164"/>
      <point x="448" y="262"/>
      <point x="448" y="320" type="curve" smooth="yes"/>
      <point x="448" y="403"/>
      <point x="443" y="484"/>
      <point x="407" y="560" type="curve" smooth="yes"/>
      <point x="366" y="643"/>
      <point x="294" y="665"/>
      <point x="245" y="665" type="curve" smooth="yes"/>
      <point x="187" y="665"/>
      <point x="116" y="636"/>
      <point x="79" y="553" type="curve" smooth="yes"/>
      <point x="51" y="490"/>
      <point x="41" y="428"/>
      <point x="41" y="320" type="curve" smooth="yes"/>
      <point x="41" y="223"/>
      <point x="48" y="150"/>
      <point x="84" y="79" type="curve" smooth="yes"/>
      <point x="123" y="3"/>
      <point x="192" y="-21"/>
    </contour>
    <contour>
      <point x="244" y="-1" type="curve" smooth="yes"/>
      <point x="212" y="-1"/>
      <point x="147" y="17"/>
      <point x="128" y="126" type="curve" smooth="yes"/>
      <point x="117" y="186"/>
      <point x="117" y="262"/>
      <point x="117" y="332" type="curve" smooth="yes"/>
      <point x="117" y="414"/>
      <point x="117" y="488"/>
      <point x="133" y="547" type="curve" smooth="yes"/>
      <point x="150" y="614"/>
      <point x="201" y="645"/>
      <point x="244" y="645" type="curve" smooth="yes"/>
      <point x="282" y="645"/>
      <point x="340" y="622"/>
      <point x="359" y="536" type="curve" smooth="yes"/>
      <point x="372" y="479"/>
      <point x="372" y="400"/>
      <point x="372" y="332" type="curve" smooth="yes"/>
      <point x="372" y="265"/>
      <point x="372" y="189"/>
      <point x="361" y="128" type="curve" smooth="yes"/>
      <point x="342" y="18"/>
      <point x="279" y="-1"/>
    </contour>
  </outline>
</glyph>
<glyph name="three" format="2">
  <advance width="489"/>
  <unicode hex="0033"/>
  <outline>
    <contour>
      <point x="241" y="-21" type="curve" smooth="yes"/>
      <point x="360" y="-21"/>
      <point x="448" y="70"/>
      <point x="448" y="171" type="curve" smooth="yes"/>
      <point x="448" y="263"/>
      <point x="374" y="335"/>
      <point x="278" y="352" type="curve"/>
      <point x="365" y="377"/>
      <point x="421" y="450"/>
      <point x="421" y="528" type="curve" smooth="yes"/>
      <point x="421" y="607"/>
      <point x="339" y="665"/>
      <point x="242" y="665" type="curve" smooth="yes"/>
      <point x="142" y="665"/>
      <point x="68" y="604"/>
      <point x="68" y="531" type="curve" smooth="yes"/>
      <point x="68" y="491"/>
      <point x="99" y="483"/>
      <point x="114" y="483" type="curve" smooth="yes"/>
      <point x="135" y="483"/>
      <point x="159" y="498"/>
      <point x="159" y="528" type="curve" smooth="yes"/>
      <point x="159" y="569"/>
      <point x="121" y="578"/>
      <point x="102" y="573" type="curve"/>
      <point x="140" y="641"/>
      <point x="234" y="641"/>
      <point x="239" y="641" type="curve" smooth="yes"/>
      <point x="272" y="641"/>
      <point x="337" y="626"/>
      <point x="337" y="528" type="curve" smooth="yes"/>
      <point x="337" y="473"/>
      <point x="318" y="364"/>
      <point x="216" y="362" type="curve"/>
      <point x="205" y="361"/>
      <point x="195" y="360"/>
      <point x="184" y="359" type="curve" smooth="yes"/>
      <point x="167" y="357"/>
      <point x="163" y="357"/>
      <point x="163" y="348" type="curve" smooth="yes"/>
      <point x="163" y="338"/>
      <point x="168" y="338"/>
      <point x="186" y="338" type="curve" smooth="yes"/>
      <point x="232" y="338" type="line" smooth="yes"/>
      <point x="317" y="338"/>
      <point x="355" y="268"/>
      <point x="355" y="172" type="curve" smooth="yes"/>
      <point x="355" y="41"/>
      <point x="287" y="6"/>
      <point x="238" y="6" type="curve" smooth="yes"/>
      <point x="190" y="6"/>
      <point x="108" y="29"/>
      <point x="79" y="95" type="curve"/>
      <point x="111" y="90"/>
      <point x="140" y="108"/>
      <point x="140" y="144" type="curve" smooth="yes"/>
      <point x="140" y="173"/>
      <point x="119" y="193"/>
      <point x="91" y="193" type="curve" smooth="yes"/>
      <point x="67" y="193"/>
      <point x="41" y="179"/>
      <point x="41" y="141" type="curve" smooth="yes"/>
      <point x="41" y="52"/>
      <point x="130" y="-21"/>
    </contour>
  </outline>
</glyph>
<glyph name="nine" format="2">
  <advance width="489"/>
  <unicode hex="0039"/>
  <outline>
    <contour>
      <point x="202" y="-21" type="curve" smooth="yes"/>
      <point x="327" y="-21"/>
      <point x="448" y="112"/>
      <point x="448" y="329" type="curve" smooth="yes"/>
      <point x="448" y="598"/>
      <point x="336" y="665"/>
      <point x="248" y="665" type="curve" smooth="yes"/>
      <point x="194.3288" y="665.0"/>
      <point x="143.7524570432" y="643.0979347712"/>
      <point x="106.02816978156339" y="605.3339749076727" type="curve" smooth="yes"/>
      <point x="66.43591486080003" y="565.700082944"/>
      <point x="41.00000000000004" y="508.59456"/>
      <point x="41" y="441" type="curve" smooth="yes"/>
      <point x="41" y="371"/>
      <point x="66.97603925" y="313.2071145"/>
      <point x="106.23309667525" y="273.99293665799996" type="curve" smooth="yes"/>
      <point x="141.25618575" y="239.00810249999995"/>
      <point x="186.85" y="218.99999999999994"/>
      <point x="234" y="219" type="curve" smooth="yes"/>
      <point x="309" y="219"/>
      <point x="346.0" y="273.0"/>
      <point x="366" y="324" type="curve"/>
      <point x="369" y="159"/>
      <point x="333.35598" y="85.95969"/>
      <point x="294.0702945209268" y="46.7235368164273" type="curve" smooth="yes"/>
      <point x="262.898495538" y="15.591037363599948"/>
      <point x="227.54520000000002" y="5.999999999999945"/>
      <point x="201" y="6" type="curve" smooth="yes"/>
      <point x="177" y="6"/>
      <point x="124" y="9"/>
      <point x="99" y="44" type="curve"/>
      <point x="113" y="41"/>
      <point x="148" y="48"/>
      <point x="148" y="85" type="curve" smooth="yes"/>
      <point x="148" y="107"/>
      <point x="133" y="126"/>
      <point x="107" y="126" type="curve" smooth="yes"/>
      <point x="81" y="126"/>
      <point x="65" y="109"/>
      <point x="65" y="83" type="curve" smooth="yes"/>
      <point x="65" y="21"/>
      <point x="115" y="-21"/>
    </contour>
    <contour>
      <point x="238" y="239" type="curve" smooth="yes"/>
      <point x="175" y="239"/>
      <point x="148" y="290"/>
      <point x="139" y="309" type="curve" smooth="yes"/>
      <point x="123" y="347"/>
      <point x="123" y="395"/>
      <point x="123" y="440" type="curve" smooth="yes"/>
      <point x="123" y="496"/>
      <point x="123" y="544"/>
      <point x="149" y="585" type="curve" smooth="yes"/>
      <point x="167" y="612"/>
      <point x="194" y="641"/>
      <point x="248" y="641" type="curve" smooth="yes"/>
      <point x="305" y="641"/>
      <point x="334" y="591"/>
      <point x="344" y="568" type="curve" smooth="yes"/>
      <point x="364" y="519"/>
      <point x="364" y="434"/>
      <point x="364" y="419" type="curve" smooth="yes"/>
      <point x="364" y="335"/>
      <point x="326" y="239"/>
    </contour>
  </outline>
</glyph>
<glyph name="equal" format="2">
  <advance width="761"/>
  <unicode hex="003D"/>
  <outline>
    <contour>
      <point x="675" y="324" type="line" smooth="yes"/>
      <point x="689" y="324"/>
      <point x="707" y="324"/>
      <point x="707" y="342" type="curve" smooth="yes"/>
      <point x="707" y="361"/>
      <point x="690" y="361"/>
      <point x="675" y="361" type="curve" smooth="yes"/>
      <point x="86" y="361" type="line" smooth="yes"/>
      <point x="72" y="361"/>
      <point x="54" y="361"/>
      <point x="54" y="343" type="curve" smooth="yes"/>
      <point x="54" y="324"/>
      <point x="71" y="324"/>
      <point x="86" y="324" type="curve" smooth="yes"/>
    </contour>
    <contour>
      <point x="675" y="138" type="line" smooth="yes"/>
      <point x="689" y="138"/>
      <point x="707" y="138"/>
      <point x="707" y="156" type="curve" smooth="yes"/>
      <point x="707" y="175"/>
      <point x="690" y="175"/>
      <point x="675" y="175" type="curve" smooth="yes"/>
      <point x="86" y="175" type="line" smooth="yes"/>
      <point x="72" y="175"/>
      <point x="54" y="175"/>
      <point x="54" y="157" type="curve" smooth="yes"/>
      <point x="54" y="138"/>
      <point x="71" y="138"/>
      <point x="86" y="138" type="curve" smooth="yes"/>
    </contour>
  </outline>
</glyph>
<glyph name="C" format="2">
  <advance width="707"/>
  <unicode hex="0043"/>
  <outline>
    <contour>
      <point x="54" y="342" type="curve" smooth="yes"/>
      <point x="54" y="135"/>
      <point x="214" y="-21"/>
      <point x="395" y="-21" type="curve" smooth="yes"/>
      <point x="559" y="-21"/>
      <point x="652" y="122"/>
      <point x="652" y="232" type="curve" smooth="yes"/>
      <point x="652" y="243"/>
      <point x="652" y="249"/>
      <point x="641" y="249" type="curve" smooth="yes"/>
      <point x="631" y="249"/>
      <point x="630" y="244"/>
      <point x="630" y="237" type="curve"/>
      <point x="621" y="78"/>
      <point x="505" y="8"/>
      <point x="408" y="8" type="curve" smooth="yes"/>
      <point x="338" y="8"/>
      <point x="147" y="50"/>
      <point x="147" y="342" type="curve" smooth="yes"/>
      <point x="147" y="631"/>
      <point x="335" y="675"/>
      <point x="407" y="675" type="curve" smooth="yes"/>
      <point x="512" y="675"/>
      <point x="604" y="586"/>
      <point x="624" y="436" type="curve" smooth="yes"/>
      <point x="626" y="424"/>
      <point x="626" y="421"/>
      <point x="638" y="421" type="curve" smooth="yes"/>
      <point x="652" y="421"/>
      <point x="652" y="424"/>
      <point x="652" y="444" type="curve" smooth="yes"/>
      <point x="652" y="681" type="line" smooth="yes"/>
      <point x="652" y="699"/>
      <point x="652" y="704"/>
      <point x="642" y="704" type="curve" smooth="yes"/>
      <point x="636" y="704"/>
      <point x="635" y="702"/>
      <point x="629" y="692" type="curve" smooth="yes"/>
      <point x="580" y="613" type="line"/>
      <point x="535" y="669"/>
      <point x="467" y="704"/>
      <point x="395" y="704" type="curve" smooth="yes"/>
      <point x="212" y="704"/>
      <point x="54" y="546"/>
    </contour>
  </outline>
</glyph>
<glyph name="D" format="2">
  <advance width="747"/>
  <unicode hex="0044"/>
  <outline>
    <contour>
      <point x="137" y="76" type="line" smooth="yes"/>
      <point x="137" y="44"/>
      <point x="114" y="29"/>
      <point x="76" y="29" type="qcurve"/>
      <point x="42" y="29" type="line"/>
      <point x="42" y="0" type="line"/>
      <point x="392" y="0" type="line"/>
      <point x="517" y="0"/>
      <point x="693" y="196"/>
      <point x="693" y="335" type="qcurve" smooth="yes"/>
      <point x="693" y="477"/>
      <point x="518" y="683"/>
      <point x="392" y="683" type="qcurve"/>
      <point x="42" y="683" type="line"/>
      <point x="42" y="654" type="line"/>
      <point x="62" y="654" type="line"/>
      <point x="116" y="654"/>
      <point x="137" y="635"/>
      <point x="137" y="607" type="qcurve"/>
    </contour>
    <contour>
      <point x="262" y="29" type="line" smooth="yes"/>
      <point x="229" y="29"/>
      <point x="216" y="44"/>
      <point x="216" y="69" type="qcurve"/>
      <point x="216" y="614" type="line" smooth="yes"/>
      <point x="216" y="639"/>
      <point x="229" y="654"/>
      <point x="262" y="654" type="qcurve"/>
      <point x="367" y="654" type="line"/>
      <point x="464" y="654"/>
      <point x="598" y="515"/>
      <point x="602" y="336" type="qcurve" smooth="yes"/>
      <point x="606" y="175"/>
      <point x="465" y="29"/>
      <point x="367" y="29" type="qcurve"/>
    </contour>
  </outline>
</glyph>
<glyph name="E" format="2">
  <advance width="666"/>
  <unicode hex="0045"/>
  <outline>
    <contour>
      <point x="136" y="76" type="line" smooth="yes"/>
      <point x="136" y="39"/>
      <point x="133" y="29"/>
      <point x="61" y="29" type="curve" smooth="yes"/>
      <point x="41" y="29" type="line"/>
      <point x="41" y="0" type="line"/>
      <point x="598" y="0" type="line"/>
      <point x="638" y="256" type="line"/>
      <point x="616" y="256" type="line"/>
      <point x="592" y="100"/>
      <point x="568" y="29"/>
      <point x="399" y="29" type="curve" smooth="yes"/>
      <point x="263" y="29" type="line" smooth="yes"/>
      <point x="219" y="29"/>
      <point x="217" y="36"/>
      <point x="217" y="69" type="curve" smooth="yes"/>
      <point x="217" y="339" type="line"/>
      <point x="308" y="339" type="line" smooth="yes"/>
      <point x="404" y="339"/>
      <point x="415" y="308"/>
      <point x="415" y="222" type="curve"/>
      <point x="437" y="222" type="line"/>
      <point x="437" y="485" type="line"/>
      <point x="415" y="485" type="line"/>
      <point x="415" y="399"/>
      <point x="404" y="368"/>
      <point x="308" y="368" type="curve" smooth="yes"/>
      <point x="217" y="368" type="line"/>
      <point x="217" y="612" type="line" smooth="yes"/>
      <point x="217" y="645"/>
      <point x="219" y="652"/>
      <point x="263" y="652" type="curve" smooth="yes"/>
      <point x="396" y="652" type="line" smooth="yes"/>
      <point x="543" y="652"/>
      <point x="574" y="602"/>
      <point x="589" y="458" type="curve"/>
      <point x="611" y="458" type="line"/>
      <point x="585" y="681" type="line"/>
      <point x="41" y="681" type="line"/>
      <point x="41" y="652" type="line"/>
      <point x="61" y="652" type="line" smooth="yes"/>
      <point x="133" y="652"/>
      <point x="136" y="642"/>
      <point x="136" y="605" type="curve" smooth="yes"/>
    </contour>
  </outline>
</glyph>
<glyph name="H" format="2">
  <advance width="734"/>
  <unicode hex="0048"/>
  <outline>
    <contour>
      <point x="41" y="0" type="line"/>
      <point x="53" y="1"/>
      <point x="106" y="2"/>
      <point x="162" y="2"/>
      <point x="176" y="2" type="qcurve"/>
      <point x="191" y="2"/>
      <point x="246" y="2"/>
      <point x="300" y="1"/>
      <point x="312" y="0" type="qcurve"/>
      <point x="312" y="29" type="line"/>
      <point x="282" y="29" type="line"/>
      <point x="251" y="29"/>
      <point x="217" y="41"/>
      <point x="217" y="68" type="qcurve"/>
      <point x="217" y="341" type="line"/>
      <point x="516" y="341" type="line"/>
      <point x="516" y="68" type="line"/>
      <point x="516" y="41"/>
      <point x="484" y="29"/>
      <point x="451" y="29" type="qcurve"/>
      <point x="421" y="29" type="line"/>
      <point x="421" y="0" type="line"/>
      <point x="433" y="1"/>
      <point x="486" y="2"/>
      <point x="542" y="2"/>
      <point x="556" y="2" type="qcurve"/>
      <point x="571" y="2"/>
      <point x="627" y="2"/>
      <point x="680" y="1"/>
      <point x="692" y="0" type="qcurve"/>
      <point x="692" y="29" type="line"/>
      <point x="664" y="29" type="line"/>
      <point x="629" y="29"/>
      <point x="597" y="41"/>
      <point x="597" y="68" type="qcurve"/>
      <point x="597" y="607" type="line" smooth="yes"/>
      <point x="597" y="635"/>
      <point x="618" y="654"/>
      <point x="665" y="654" type="qcurve"/>
      <point x="692" y="654" type="line"/>
      <point x="692" y="683" type="line"/>
      <point x="680" y="682"/>
      <point x="627" y="681"/>
      <point x="572" y="681"/>
      <point x="557" y="681" type="qcurve"/>
      <point x="542" y="681"/>
      <point x="487" y="681"/>
      <point x="433" y="682"/>
      <point x="421" y="683" type="qcurve"/>
      <point x="421" y="654" type="line"/>
      <point x="449" y="654" type="line"/>
      <point x="495" y="654"/>
      <point x="516" y="635"/>
      <point x="516" y="607" type="qcurve"/>
      <point x="516" y="370" type="line"/>
      <point x="217" y="370" type="line"/>
      <point x="217" y="607" type="line" smooth="yes"/>
      <point x="217" y="636"/>
      <point x="244" y="654"/>
      <point x="283" y="654" type="qcurve"/>
      <point x="312" y="654" type="line"/>
      <point x="312" y="683" type="line"/>
      <point x="300" y="682"/>
      <point x="247" y="681"/>
      <point x="192" y="681"/>
      <point x="177" y="681" type="qcurve"/>
      <point x="162" y="681"/>
      <point x="106" y="681"/>
      <point x="53" y="682"/>
      <point x="41" y="683" type="qcurve"/>
      <point x="41" y="654" type="line"/>
      <point x="67" y="654" type="line" smooth="yes"/>
      <point x="110" y="654"/>
      <point x="136" y="635"/>
      <point x="136" y="607" type="qcurve"/>
      <point x="136" y="69" type="line" smooth="yes"/>
      <point x="136" y="44"/>
      <point x="109" y="29"/>
      <point x="67" y="29" type="qcurve"/>
      <point x="41" y="29" type="line"/>
    </contour>
  </outline>
</glyph>
<glyph name="I" format="2">
  <advance width="353"/>
  <unicode hex="0049"/>
  <outline>
    <contour>
      <point x="36" y="0" type="line"/>
      <point x="60" y="2"/>
      <point x="146" y="2"/>
      <point x="176" y="2" type="curve" smooth="yes"/>
      <point x="206" y="2"/>
      <point x="293" y="2"/>
      <point x="317" y="0" type="curve"/>
      <point x="317" y="29" type="line"/>
      <point x="295" y="29" type="line" smooth="yes"/>
      <point x="220" y="29"/>
      <point x="217" y="39"/>
      <point x="217" y="76" type="curve" smooth="yes"/>
      <point x="217" y="607" type="line" smooth="yes"/>
      <point x="217" y="644"/>
      <point x="220" y="654"/>
      <point x="295" y="654" type="curve" smooth="yes"/>
      <point x="317" y="654" type="line"/>
      <point x="317" y="683" type="line"/>
      <point x="293" y="681"/>
      <point x="207" y="681"/>
      <point x="177" y="681" type="curve" smooth="yes"/>
      <point x="147" y="681"/>
      <point x="60" y="681"/>
      <point x="36" y="683" type="curve"/>
      <point x="36" y="654" type="line"/>
      <point x="58" y="654" type="line" smooth="yes"/>
      <point x="133" y="654"/>
      <point x="136" y="644"/>
      <point x="136" y="607" type="curve" smooth="yes"/>
      <point x="136" y="76" type="line" smooth="yes"/>
      <point x="136" y="39"/>
      <point x="133" y="29"/>
      <point x="58" y="29" type="curve" smooth="yes"/>
      <point x="36" y="29" type="line"/>
    </contour>
  </outline>
</glyph>
<glyph name="Y" format="2">
  <advance width="734"/>
  <unicode hex="0059"/>
  <outline>
    <contour>
      <point x="232" y="0" type="line"/>
      <point x="255" y="2"/>
      <point x="337" y="2"/>
      <point x="366" y="2" type="curve" smooth="yes"/>
      <point x="395" y="2"/>
      <point x="477" y="2"/>
      <point x="501" y="0" type="curve"/>
      <point x="501" y="29" type="line"/>
      <point x="481" y="29" type="line" smooth="yes"/>
      <point x="408" y="29"/>
      <point x="406" y="39"/>
      <point x="406" y="74" type="curve" smooth="yes"/>
      <point x="406" y="274" type="line"/>
      <point x="601" y="589" type="line" smooth="yes"/>
      <point x="634" y="642"/>
      <point x="680" y="654"/>
      <point x="723" y="654" type="curve"/>
      <point x="723" y="683" type="line"/>
      <point x="667" y="681"/>
      <point x="665" y="681"/>
      <point x="630" y="681" type="curve" smooth="yes"/>
      <point x="603" y="681"/>
      <point x="553" y="681"/>
      <point x="528" y="683" type="curve"/>
      <point x="528" y="654" type="line"/>
      <point x="557" y="654"/>
      <point x="578" y="641"/>
      <point x="578" y="617" type="curve" smooth="yes"/>
      <point x="578" y="604"/>
      <point x="576" y="601"/>
      <point x="566" y="585" type="curve" smooth="yes"/>
      <point x="397" y="310" type="line"/>
      <point x="211" y="611" type="line" smooth="yes"/>
      <point x="205" y="621"/>
      <point x="203" y="624"/>
      <point x="203" y="630" type="curve" smooth="yes"/>
      <point x="203" y="651"/>
      <point x="229" y="654"/>
      <point x="265" y="654" type="curve"/>
      <point x="265" y="683" type="line"/>
      <point x="242" y="681"/>
      <point x="161" y="681"/>
      <point x="133" y="681" type="curve" smooth="yes"/>
      <point x="105" y="681"/>
      <point x="34" y="681"/>
      <point x="10" y="683" type="curve"/>
      <point x="10" y="654" type="line"/>
      <point x="10" y="654" type="line"/>
      <point x="81" y="654"/>
      <point x="94" y="651"/>
      <point x="116" y="615" type="curve" smooth="yes"/>
      <point x="327" y="273" type="line"/>
      <point x="327" y="76" type="line" smooth="yes"/>
      <point x="327" y="39"/>
      <point x="324" y="29"/>
      <point x="252" y="29" type="curve" smooth="yes"/>
      <point x="232" y="29" type="line"/>
    </contour>
  </outline>
</glyph>
<glyph name="w" format="2">
  <advance width="707"/>
  <unicode hex="0077"/>
  <outline>
    <contour>
      <point x="605" y="336" type="line" smooth="yes"/>
      <point x="627" y="399"/>
      <point x="671" y="401"/>
      <point x="688" y="402" type="curve"/>
      <point x="688" y="431" type="line"/>
      <point x="663" y="429"/>
      <point x="645" y="429"/>
      <point x="614" y="429" type="curve" smooth="yes"/>
      <point x="585" y="429"/>
      <point x="583" y="429"/>
      <point x="529" y="431" type="curve"/>
      <point x="529" y="402" type="line"/>
      <point x="574" y="400"/>
      <point x="586" y="373"/>
      <point x="586" y="354" type="curve" smooth="yes"/>
      <point x="586" y="353"/>
      <point x="586" y="346"/>
      <point x="582" y="336" type="curve" smooth="yes"/>
      <point x="490" y="74" type="line"/>
      <point x="390" y="357" type="line"/>
      <point x="385" y="369"/>
      <point x="385" y="371"/>
      <point x="385" y="374" type="curve" smooth="yes"/>
      <point x="385" y="402"/>
      <point x="422" y="402"/>
      <point x="443" y="402" type="curve"/>
      <point x="443" y="431" type="line"/>
      <point x="415" y="429"/>
      <point x="374" y="429"/>
      <point x="345" y="429" type="curve" smooth="yes"/>
      <point x="313" y="429"/>
      <point x="311" y="429"/>
      <point x="255" y="431" type="curve"/>
      <point x="255" y="402" type="line"/>
      <point x="293" y="402"/>
      <point x="306" y="400"/>
      <point x="317" y="387" type="curve" smooth="yes"/>
      <point x="322" y="381"/>
      <point x="334" y="348"/>
      <point x="341" y="328" type="curve"/>
      <point x="256" y="84" type="line"/>
      <point x="160" y="356" type="line" smooth="yes"/>
      <point x="155" y="369"/>
      <point x="155" y="371"/>
      <point x="155" y="375" type="curve" smooth="yes"/>
      <point x="155" y="402"/>
      <point x="194" y="402"/>
      <point x="213" y="402" type="curve"/>
      <point x="213" y="431" type="line"/>
      <point x="188" y="429"/>
      <point x="138" y="429"/>
      <point x="111" y="429" type="curve" smooth="yes"/>
      <point x="83" y="429"/>
      <point x="81" y="429"/>
      <point x="18" y="431" type="curve"/>
      <point x="18" y="402" type="line"/>
      <point x="69" y="402"/>
      <point x="79" y="398"/>
      <point x="90" y="366" type="curve" smooth="yes"/>
      <point x="216" y="8" type="line" smooth="yes"/>
      <point x="220" y="-3"/>
      <point x="223" y="-10"/>
      <point x="234" y="-10" type="curve" smooth="yes"/>
      <point x="243" y="-10"/>
      <point x="248" y="-7"/>
      <point x="253" y="9" type="curve" smooth="yes"/>
      <point x="353" y="294" type="line"/>
      <point x="453" y="9" type="line" smooth="yes"/>
      <point x="458" y="-7"/>
      <point x="463" y="-10"/>
      <point x="472" y="-10" type="curve" smooth="yes"/>
      <point x="483" y="-10"/>
      <point x="486" y="-3"/>
      <point x="490" y="8" type="curve" smooth="yes"/>
    </contour>
  </outline>
</glyph>
<glyph name="x" format="2">
  <advance width="516"/>
  <unicode hex="0078"/>
  <outline>
    <contour>
      <point x="10" y="0" type="line"/>
      <point x="48" y="2"/>
      <point x="50" y="2"/>
      <point x="93" y="2" type="curve" smooth="yes"/>
      <point x="131" y="2"/>
      <point x="133" y="2"/>
      <point x="183" y="0" type="curve"/>
      <point x="183" y="29" type="line"/>
      <point x="159" y="32"/>
      <point x="155" y="47"/>
      <point x="155" y="61" type="curve" smooth="yes"/>
      <point x="155" y="77"/>
      <point x="162" y="85"/>
      <point x="172" y="98" type="curve" smooth="yes"/>
      <point x="244" y="191" type="line"/>
      <point x="326" y="84" type="line" smooth="yes"/>
      <point x="343" y="62"/>
      <point x="343" y="60"/>
      <point x="343" y="54" type="curve" smooth="yes"/>
      <point x="343" y="46"/>
      <point x="335" y="30"/>
      <point x="308" y="29" type="curve"/>
      <point x="308" y="0" type="line"/>
      <point x="334" y="2"/>
      <point x="383" y="2"/>
      <point x="411" y="2" type="curve" smooth="yes"/>
      <point x="444" y="2"/>
      <point x="446" y="2"/>
      <point x="506" y="0" type="curve"/>
      <point x="506" y="29" type="line"/>
      <point x="453" y="29"/>
      <point x="435" y="31"/>
      <point x="411" y="63" type="curve" smooth="yes"/>
      <point x="280" y="236" type="line"/>
      <point x="363" y="340" type="line" smooth="yes"/>
      <point x="408" y="397"/>
      <point x="458" y="402"/>
      <point x="490" y="402" type="curve"/>
      <point x="490" y="431" type="line"/>
      <point x="447" y="429"/>
      <point x="445" y="429"/>
      <point x="406" y="429" type="curve" smooth="yes"/>
      <point x="368" y="429"/>
      <point x="366" y="429"/>
      <point x="316" y="431" type="curve"/>
      <point x="316" y="402" type="line"/>
      <point x="329" y="400"/>
      <point x="345" y="394"/>
      <point x="345" y="371" type="curve" smooth="yes"/>
      <point x="345" y="354"/>
      <point x="336" y="343"/>
      <point x="330" y="335" type="curve" smooth="yes"/>
      <point x="266" y="254" type="line"/>
      <point x="188" y="357" type="line" smooth="yes"/>
      <point x="185" y="361"/>
      <point x="179" y="370"/>
      <point x="179" y="377" type="curve" smooth="yes"/>
      <point x="179" y="383"/>
      <point x="184" y="401"/>
      <point x="214" y="402" type="curve"/>
      <point x="214" y="431" type="line"/>
      <point x="189" y="429"/>
      <point x="138" y="429"/>
      <point x="111" y="429" type="curve" smooth="yes"/>
      <point x="78" y="429"/>
      <point x="76" y="429"/>
      <point x="15" y="431" type="curve"/>
      <point x="15" y="402" type="line"/>
      <point x="66" y="402"/>
      <point x="85" y="400"/>
      <point x="106" y="373" type="curve" smooth="yes"/>
      <point x="231" y="210" type="line"/>
      <point x="145" y="100" type="line" smooth="yes"/>
      <point x="98" y="40"/>
      <point x="53" y="30"/>
      <point x="10" y="29" type="curve"/>
    </contour>
  </outline>
</glyph>
<glyph name="AE" format="2">
  <advance width="883"/>
  <unicode hex="00C6"/>
  <outline>
    <contour>
      <point x="31" y="0" type="line"/>
      <point x="92" y="2"/>
      <point x="94" y="2"/>
      <point x="127" y="2" type="curve" smooth="yes"/>
      <point x="154" y="2"/>
      <point x="205" y="2"/>
      <point x="230" y="0" type="curve"/>
      <point x="230" y="29" type="line"/>
      <point x="182" y="30"/>
      <point x="163" y="54"/>
      <point x="163" y="79" type="curve" smooth="yes"/>
      <point x="163" y="85"/>
      <point x="163" y="87"/>
      <point x="168" y="100" type="curve" smooth="yes"/>
      <point x="244" y="314" type="line"/>
      <point x="407" y="314" type="line"/>
      <point x="407" y="73" type="line" smooth="yes"/>
      <point x="407" y="34"/>
      <point x="403" y="29"/>
      <point x="336" y="29" type="curve"/>
      <point x="336" y="0" type="line"/>
      <point x="816" y="0" type="line"/>
      <point x="856" y="256" type="line"/>
      <point x="834" y="256" type="line"/>
      <point x="811" y="102"/>
      <point x="792" y="29"/>
      <point x="630" y="29" type="curve" smooth="yes"/>
      <point x="528" y="29" type="line" smooth="yes"/>
      <point x="484" y="29"/>
      <point x="482" y="36"/>
      <point x="482" y="69" type="curve" smooth="yes"/>
      <point x="482" y="314" type="line"/>
      <point x="570" y="314" type="line" smooth="yes"/>
      <point x="665" y="314"/>
      <point x="673" y="280"/>
      <point x="673" y="197" type="curve"/>
      <point x="695" y="197" type="line"/>
      <point x="695" y="460" type="line"/>
      <point x="673" y="460" type="line"/>
      <point x="673" y="377"/>
      <point x="665" y="343"/>
      <point x="570" y="343" type="curve" smooth="yes"/>
      <point x="482" y="343" type="line"/>
      <point x="482" y="614" type="line" smooth="yes"/>
      <point x="482" y="647"/>
      <point x="484" y="654"/>
      <point x="528" y="654" type="curve" smooth="yes"/>
      <point x="631" y="654" type="line" smooth="yes"/>
      <point x="768" y="654"/>
      <point x="793" y="600"/>
      <point x="807" y="460" type="curve"/>
      <point x="829" y="460" type="line"/>
      <point x="803" y="683" type="line"/>
      <point x="258" y="683" type="line"/>
      <point x="258" y="654" type="line"/>
      <point x="337" y="654" type="line"/>
      <point x="137" y="95" type="line" smooth="yes"/>
      <point x="119" y="46"/>
      <point x="82" y="29"/>
      <point x="31" y="29" type="curve"/>
    </contour>
    <contour>
      <point x="255" y="343" type="line"/>
      <point x="365" y="651" type="line"/>
      <point x="407" y="650"/>
      <point x="407" y="622"/>
      <point x="407" y="605" type="curve" smooth="yes"/>
      <point x="407" y="343" type="line"/>
    </contour>
  </outline>
</glyph>
<glyph name="dotlessi" format="2">
  <advance width="271"/>
  <unicode hex="0131"/>
  <outline>
    <contour>
      <point x="109" y="74" type="line" smooth="yes"/>
      <point x="109" y="29"/>
      <point x="98" y="29"/>
      <point x="33" y="29" type="curve"/>
      <point x="33" y="29" type="line"/>
      <point x="33" y="0" type="line"/>
      <point x="61" y="2"/>
      <point x="109" y="2"/>
      <point x="138" y="2" type="curve" smooth="yes"/>
      <point x="149" y="2"/>
      <point x="207" y="2"/>
      <point x="241" y="0" type="curve"/>
      <point x="241" y="29" type="line"/>
      <point x="176" y="29"/>
      <point x="172" y="34"/>
      <point x="172" y="73" type="curve" smooth="yes"/>
      <point x="172" y="441" type="line"/>
      <point x="36" y="430" type="line"/>
      <point x="36" y="401" type="line"/>
      <point x="100" y="401"/>
      <point x="109" y="395"/>
      <point x="109" y="346" type="curve" smooth="yes"/>
    </contour>
  </outline>
</glyph>
<glyph name="dotaccent" format="2">
  <advance width="271"/>
  <unicode hex="02D9"/>
  <outline>
    <contour>
      <point x="184" y="616" type="curve" smooth="yes"/>
      <point x="184" y="646"/>
      <point x="160" y="665"/>
      <point x="136" y="665" type="curve" smooth="yes"/>
      <point x="108" y="665"/>
      <point x="87" y="643"/>
      <point x="87" y="616" type="curve" smooth="yes"/>
      <point x="87" y="590"/>
      <point x="109" y="568"/>
      <point x="135" y="568" type="curve" smooth="yes"/>
      <point x="165" y="568"/>
      <point x="184" y="592"/>
    </contour>
  </outline>
</glyph>
<glyph name="endash" format="2">
  <advance width="489"/>
  <unicode hex="2013"/>
  <outline>
    <contour>
      <point x="489" y="256" type="line"/>
      <point x="489" y="276" type="line"/>
      <point x="0" y="276" type="line"/>
      <point x="0" y="256" type="line"/>
    </contour>
  </outline>
</glyph>
<glyph name="quotedblright" format="2">
  <advance width="489"/>
  <unicode hex="201D"/>
  <outline>
    <contour>
      <point x="56" y="404" type="curve" smooth="yes"/>
      <point x="65" y="404"/>
      <point x="144" y="478"/>
      <point x="144" y="592" type="curve" smooth="yes"/>
      <point x="144" y="654"/>
      <point x="121" y="694"/>
      <point x="81" y="694" type="curve" smooth="yes"/>
      <point x="52" y="694"/>
      <point x="33" y="672"/>
      <point x="33" y="646" type="curve" smooth="yes"/>
      <point x="33" y="619"/>
      <point x="52" y="597"/>
      <point x="82" y="597" type="curve" smooth="yes"/>
      <point x="109" y="597"/>
      <point x="122" y="616"/>
      <point x="122" y="617" type="curve"/>
      <point x="124" y="602"/>
      <point x="135" y="508"/>
      <point x="55" y="428" type="curve" smooth="yes"/>
      <point x="46" y="419"/>
      <point x="46" y="417"/>
      <point x="46" y="414" type="curve" smooth="yes"/>
      <point x="46" y="409"/>
      <point x="51" y="404"/>
    </contour>
    <contour>
      <point x="246" y="404" type="curve" smooth="yes"/>
      <point x="255" y="404"/>
      <point x="334" y="478"/>
      <point x="334" y="592" type="curve" smooth="yes"/>
      <point x="334" y="654"/>
      <point x="311" y="694"/>
      <point x="271" y="694" type="curve" smooth="yes"/>
      <point x="242" y="694"/>
      <point x="223" y="672"/>
      <point x="223" y="646" type="curve" smooth="yes"/>
      <point x="223" y="619"/>
      <point x="242" y="597"/>
      <point x="272" y="597" type="curve" smooth="yes"/>
      <point x="299" y="597"/>
      <point x="312" y="616"/>
      <point x="312" y="617" type="curve"/>
      <point x="314" y="602"/>
      <point x="325" y="508"/>
      <point x="245" y="428" type="curve" smooth="yes"/>
      <point x="236" y="419"/>
      <point x="236" y="417"/>
      <point x="236" y="414" type="curve" smooth="yes"/>
      <point x="236" y="409"/>
      <point x="241" y="404"/>
    </contour>
  </outline>
</glyph>
<glyph name="ffi" format="2">
  <advance width="815"/>
  <outline>
    <contour>
      <point x="711" y="442" type="line"/>
      <point x="671" y="439"/>
      <point x="630" y="437"/>
      <point x="590" y="434" type="curve"/>
      <point x="584" y="434"/>
      <point x="574" y="433"/>
      <point x="572" y="432" type="curve" smooth="yes"/>
      <point x="570" y="431"/>
      <point x="568" y="431"/>
      <point x="554" y="431" type="curve" smooth="yes"/>
      <point x="437" y="431" type="line"/>
      <point x="437" y="544" type="line" smooth="yes"/>
      <point x="437" y="646"/>
      <point x="524" y="684"/>
      <point x="583" y="684" type="curve" smooth="yes"/>
      <point x="593" y="684"/>
      <point x="641" y="683"/>
      <point x="671" y="649" type="curve"/>
      <point x="629" y="649"/>
      <point x="626" y="618"/>
      <point x="626" y="607" type="curve" smooth="yes"/>
      <point x="626" y="578"/>
      <point x="650" y="565"/>
      <point x="667" y="565" type="curve" smooth="yes"/>
      <point x="685" y="565"/>
      <point x="709" y="577"/>
      <point x="709" y="608" type="curve" smooth="yes"/>
      <point x="709" y="659"/>
      <point x="662" y="704"/>
      <point x="585" y="704" type="curve" smooth="yes"/>
      <point x="512" y="704"/>
      <point x="456" y="677"/>
      <point x="424" y="649" type="curve"/>
      <point x="404" y="684"/>
      <point x="362" y="704"/>
      <point x="312" y="704" type="curve" smooth="yes"/>
      <point x="219" y="704"/>
      <point x="104" y="653"/>
      <point x="104" y="546" type="curve" smooth="yes"/>
      <point x="104" y="431" type="line"/>
      <point x="26" y="431" type="line"/>
      <point x="26" y="402" type="line"/>
      <point x="104" y="402" type="line"/>
      <point x="104" y="74" type="line" smooth="yes"/>
      <point x="104" y="29"/>
      <point x="93" y="29"/>
      <point x="28" y="29" type="curve"/>
      <point x="28" y="0" type="line"/>
      <point x="56" y="2"/>
      <point x="105" y="2"/>
      <point x="135" y="2" type="curve" smooth="yes"/>
      <point x="165" y="2"/>
      <point x="215" y="2"/>
      <point x="243" y="0" type="curve"/>
      <point x="243" y="29" type="line"/>
      <point x="179" y="29"/>
      <point x="167" y="29"/>
      <point x="167" y="74" type="curve" smooth="yes"/>
      <point x="167" y="402" type="line"/>
      <point x="376" y="402" type="line"/>
      <point x="376" y="74" type="line" smooth="yes"/>
      <point x="376" y="29"/>
      <point x="365" y="29"/>
      <point x="300" y="29" type="curve"/>
      <point x="300" y="0" type="line"/>
      <point x="328" y="2"/>
      <point x="377" y="2"/>
      <point x="407" y="2" type="curve" smooth="yes"/>
      <point x="437" y="2"/>
      <point x="487" y="2"/>
      <point x="515" y="0" type="curve"/>
      <point x="515" y="29" type="line"/>
      <point x="451" y="29"/>
      <point x="439" y="29"/>
      <point x="439" y="74" type="curve" smooth="yes"/>
      <point x="439" y="402" type="line"/>
      <point x="596" y="402" type="line" smooth="yes"/>
      <point x="642" y="402"/>
      <point x="648" y="389"/>
      <point x="648" y="348" type="curve" smooth="yes"/>
      <point x="648" y="74" type="line" smooth="yes"/>
      <point x="648" y="29"/>
      <point x="637" y="29"/>
      <point x="572" y="29" type="curve"/>
      <point x="572" y="0" type="line"/>
      <point x="600" y="2"/>
      <point x="649" y="2"/>
      <point x="679" y="2" type="curve" smooth="yes"/>
      <point x="709" y="2"/>
      <point x="759" y="2"/>
      <point x="787" y="0" type="curve"/>
      <point x="787" y="29" type="line"/>
      <point x="723" y="29"/>
      <point x="711" y="29"/>
      <point x="711" y="74" type="curve" smooth="yes"/>
    </contour>
    <contour>
      <point x="165" y="431" type="line"/>
      <point x="165" y="544" type="line" smooth="yes"/>
      <point x="165" y="648"/>
      <point x="255" y="684"/>
      <point x="309" y="684" type="curve" smooth="yes"/>
      <point x="340" y="684"/>
      <point x="377" y="674"/>
      <point x="397" y="649" type="curve"/>
      <point x="353" y="649"/>
      <point x="351" y="615"/>
      <point x="351" y="607" type="curve" smooth="yes"/>
      <point x="351" y="590"/>
      <point x="361" y="574"/>
      <point x="377" y="568" type="curve"/>
      <point x="376" y="561"/>
      <point x="376" y="559"/>
      <point x="376" y="546" type="curve" smooth="yes"/>
      <point x="376" y="431" type="line"/>
    </contour>
  </outline>
</glyph>
<glyph name="fl" format="2">
  <advance width="543"/>
  <outline>
    <contour>
      <point x="439" y="694" type="line"/>
      <point x="432" y="693"/>
      <point x="411" y="688"/>
      <point x="405" y="688" type="curve" smooth="yes"/>
      <point x="403" y="688"/>
      <point x="401" y="688"/>
      <point x="396" y="691" type="curve"/>
      <point x="362" y="704"/>
      <point x="331" y="704"/>
      <point x="315" y="704" type="curve" smooth="yes"/>
      <point x="211" y="704"/>
      <point x="104" y="649"/>
      <point x="104" y="546" type="curve" smooth="yes"/>
      <point x="104" y="431" type="line"/>
      <point x="26" y="431" type="line"/>
      <point x="26" y="402" type="line"/>
      <point x="104" y="402" type="line"/>
      <point x="104" y="74" type="line" smooth="yes"/>
      <point x="104" y="29"/>
      <point x="93" y="29"/>
      <point x="28" y="29" type="curve"/>
      <point x="28" y="0" type="line"/>
      <point x="56" y="2"/>
      <point x="105" y="2"/>
      <point x="135" y="2" type="curve" smooth="yes"/>
      <point x="165" y="2"/>
      <point x="215" y="2"/>
      <point x="243" y="0" type="curve"/>
      <point x="243" y="29" type="line"/>
      <point x="179" y="29"/>
      <point x="167" y="29"/>
      <point x="167" y="74" type="curve" smooth="yes"/>
      <point x="167" y="402" type="line"/>
      <point x="376" y="402" type="line"/>
      <point x="376" y="74" type="line" smooth="yes"/>
      <point x="376" y="29"/>
      <point x="365" y="29"/>
      <point x="300" y="29" type="curve"/>
      <point x="300" y="0" type="line"/>
      <point x="328" y="2"/>
      <point x="377" y="2"/>
      <point x="407" y="2" type="curve" smooth="yes"/>
      <point x="437" y="2"/>
      <point x="487" y="2"/>
      <point x="515" y="0" type="curve"/>
      <point x="515" y="29" type="line"/>
      <point x="451" y="29"/>
      <point x="439" y="29"/>
      <point x="439" y="74" type="curve" smooth="yes"/>
    </contour>
    <contour>
      <point x="165" y="431" type="line"/>
      <point x="165" y="544" type="line" smooth="yes"/>
      <point x="165" y="639"/>
      <point x="241" y="684"/>
      <point x="314" y="684" type="curve" smooth="yes"/>
      <point x="349" y="684"/>
      <point x="351" y="684"/>
      <point x="375" y="677" type="curve"/>
      <point x="375" y="677"/>
      <point x="376" y="673"/>
      <point x="375" y="672" type="curve"/>
      <point x="364" y="663"/>
      <point x="356" y="653"/>
      <point x="356" y="637" type="curve" smooth="yes"/>
      <point x="356" y="629"/>
      <point x="359" y="612"/>
      <point x="376" y="603" type="curve"/>
      <point x="376" y="431" type="line"/>
    </contour>
  </outline>
</glyph>
